<?xml version="1.0" encoding="UTF-8" standalone="no"?>
<!DOCTYPE svg PUBLIC "-//W3C//DTD SVG 1.1//EN" "http://www.w3.org/Graphics/SVG/1.1/DTD/svg11.dtd">
<svg width="100%" height="100%" viewBox="0 0 1955 555" version="1.1" xmlns="http://www.w3.org/2000/svg" xmlns:xlink="http://www.w3.org/1999/xlink" xml:space="preserve" xmlns:serif="http://www.serif.com/" style="fill-rule:evenodd;clip-rule:evenodd;stroke-linejoin:round;stroke-miterlimit:2;">
    <g transform="matrix(1,0,0,1,-6.139465,-18.544255)">
        <g id="Artboard1" transform="matrix(1.013063,0,0,1,0,27.577419)">
            <rect x="0" y="-27.577" width="1935.859" height="714.887" style="fill:none;"/>
            <g id="Artboard7" transform="matrix(0.974075,0,0,1,25.191122,-7.507852)">
                <rect x="-19.64" y="-1.525" width="1980.178" height="554.366" style="fill:none;"/>
                <clipPath id="_clip1">
                    <rect x="-19.64" y="-1.525" width="1980.178" height="554.366"/>
                </clipPath>
                <g clip-path="url(#_clip1)">
                    <g id="Artboard2" transform="matrix(0.975028,0,0,0.915618,-2.5246,28.286228)">
                        <rect x="-23.935" y="-52.812" width="634.204" height="628.098" style="fill:none;"/>
                        <g transform="matrix(4.330546,0,0,4.550659,2.347638,-939.154995)">
                            <path d="M100.255,275.653C100.388,274.978 100.511,274.3 100.613,273.618C101.637,266.765 100.803,259.922 98.46,253.668L103.476,243.509C110.44,248.269 115.731,255.34 118.108,263.61C118.774,265.924 119.164,268.313 119.295,270.721L100.255,275.653ZM49.402,312.06L49.403,312.06C55.592,313.189 61.947,312.933 68.004,311.338L67.045,313.281C66.531,313.177 66.009,313.186 65.513,313.307C64.591,313.533 63.812,314.105 63.321,314.918C62.829,315.73 62.684,316.685 62.91,317.606C63.114,318.435 63.609,319.162 64.304,319.655C65.148,320.253 66.207,320.455 67.21,320.208C68.132,319.981 68.91,319.41 69.401,318.598C69.892,317.786 70.037,316.831 69.811,315.909C69.636,315.201 69.24,314.563 68.645,314.057L70.325,310.655C70.875,310.476 71.423,310.29 71.967,310.089C72.359,309.943 72.749,309.788 73.136,309.629C73.773,309.776 74.414,309.913 75.062,310.031L75.063,310.031C78.393,310.639 81.8,310.849 85.202,310.655C88.652,310.355 91.986,309.637 95.155,308.547C88.88,320.125 75.434,323.373 64.837,321.44C60.498,320.649 56.384,318.99 52.941,316.643C50.843,315.213 48.996,313.524 47.404,311.646C48.063,311.799 48.729,311.937 49.402,312.06ZM37.237,293.28C37.127,296.864 37.609,300.417 38.666,303.803C34.955,301.598 31.692,298.748 28.976,295.42L37.237,293.28ZM51.603,249.283C45.819,256.796 43.141,265.802 43.554,274.655C43.548,274.665 43.539,274.677 43.533,274.686C43.455,274.787 43.381,274.887 43.319,274.979C39.691,280.302 37.721,286.151 37.307,291.961L28.127,294.339C21.349,285.402 18.339,273.395 20.757,261.532C21.75,256.658 23.809,251.892 26.864,247.384C35.96,235.122 51.507,228.961 66.474,231.691C69.234,232.194 71.915,232.99 74.49,234.063C65.647,236.376 57.465,241.667 51.603,249.283ZM87.349,237.367C87.999,237.449 88.649,237.544 89.295,237.662C93.848,238.492 98.135,240.177 101.973,242.539L97.563,251.47C95.207,246.136 91.727,241.309 87.349,237.367ZM86.405,306.479C84.125,306.609 81.841,306.539 79.587,306.275C87.3,301.347 93.594,293.795 97.338,285.063C99.22,291.15 99.235,297.86 97.106,304.084C93.74,305.336 90.133,306.155 86.405,306.479ZM95.24,256.176L89.872,267.047C89.81,266.997 89.752,266.944 89.69,266.895C85.762,263.771 81.309,261.739 76.452,260.852C65.838,258.917 54.714,262.716 46.928,270.651C47.045,262.865 49.834,255.091 54.877,249.281C60.778,242.484 69.889,238.087 79.875,237.217C80.065,237.201 80.255,237.19 80.444,237.177C87.374,241.646 92.458,248.417 95.24,256.176ZM43.883,278.153C44.423,282.012 45.562,285.797 47.294,289.374L40.399,291.16C40.549,286.684 41.686,282.219 43.883,278.153ZM97.318,275.514C95.707,272.87 93.686,270.417 91.266,268.239L96.023,258.604C97.582,263.989 98.062,269.761 97.318,275.514ZM89.323,272.176C90.993,273.725 92.456,275.466 93.7,277.351L85.75,279.411L89.323,272.176ZM82.74,281.492L71.426,304.408C63.408,301.637 56.707,296.335 52.315,289.374L82.74,281.492ZM51.634,288.249C50.164,285.718 48.989,282.985 48.156,280.088C47.563,278.023 47.191,275.898 47.024,273.754C53.827,266.347 64.055,262.946 74.373,264.828C78.271,265.539 81.948,266.969 85.302,269.078C86.225,269.659 87.099,270.295 87.934,270.972L83.477,280L51.634,288.249ZM95.385,283.758C91.966,293.619 84.423,301.277 75.049,305.465C74.405,305.311 73.766,305.144 73.137,304.959L85.014,280.903L94.404,278.47C95.013,279.492 95.565,280.547 96.05,281.635C95.845,282.345 95.629,283.054 95.385,283.758ZM40.381,292.465L47.876,290.524C49.018,292.689 50.376,294.772 51.966,296.735C55.995,301.712 61.413,305.552 67.635,307.943C62.304,309.18 56.63,309.38 50.94,308.342C48.506,307.898 46.116,307.222 43.839,306.335C41.611,302.073 40.426,297.288 40.381,292.465ZM111.386,294.417C108.389,297.87 104.561,300.7 100.215,302.766C102.861,294.993 102.506,286.71 99.347,279.425C99.574,278.633 99.779,277.834 99.963,277.03L119.337,272.011C119.464,280.138 116.654,288.348 111.386,294.417ZM135.104,265.137C133.769,264.191 131.914,264.506 130.968,265.84C130.542,266.442 130.384,267.148 130.449,267.831L123.134,269.726C122.76,257.735 116.311,246.174 105.628,239.151L119.475,211.105C120.337,211.378 121.241,211.41 122.113,211.195C123.39,210.881 124.468,210.089 125.149,208.964C125.829,207.839 126.032,206.517 125.717,205.24C125.435,204.092 124.749,203.084 123.785,202.401C122.616,201.573 121.151,201.293 119.762,201.635C117.128,202.283 115.511,204.955 116.158,207.591C116.418,208.649 117.033,209.593 117.904,210.273L104.113,238.204C102.767,237.401 101.359,236.669 99.892,236.014C97.148,234.789 94.265,233.895 91.321,233.358C88.024,232.757 84.677,232.613 81.363,232.886C79.344,231.647 77.201,230.572 74.944,229.687C72.663,228.795 70.293,228.121 67.901,227.684C52.294,224.838 35.638,232.01 25.466,245.957C25.401,246.044 25.332,246.146 25.285,246.222C25.206,246.323 25.132,246.423 25.072,246.513C14.611,261.7 13.981,280.278 23.427,294.998C23.53,295.159 23.636,295.316 23.742,295.475L10.815,298.824C10.414,297.946 9.789,297.157 8.947,296.56C6.397,294.752 2.85,295.356 1.042,297.907C-0.765,300.458 -0.161,304.004 2.388,305.812C4.939,307.62 8.486,307.016 10.294,304.465C11.242,303.127 11.521,301.515 11.208,300.023L24.5,296.58C28.695,302.446 34.432,306.925 41.178,309.673C43.38,313.657 46.478,317.248 50.441,320.168C54.144,322.897 58.296,324.696 62.781,325.514L62.783,325.514C74.991,327.741 88.202,322.173 95.656,311.659C96.651,310.256 97.523,308.81 98.281,307.332C108.588,302.822 116.81,294.192 120.977,282.964C122.429,279.053 123.131,275.022 123.152,271.022L130.826,269.034C131.034,269.395 131.313,269.72 131.674,269.976C133.008,270.921 134.863,270.605 135.808,269.271C136.754,267.937 136.438,266.083 135.104,265.137Z" style="fill:rgb(237,28,36);fill-rule:nonzero;"/>
                        </g>
                    </g>
                    <g id="Artboard6" transform="matrix(1.034798,0,0,0.889188,-68.245163,58.425881)">
                        <rect x="672.393" y="-88.278" width="1287.584" height="803.164" style="fill:none;"/>
                        <clipPath id="_clip2">
                            <rect x="672.393" y="-88.278" width="1287.584" height="803.164"/>
                        </clipPath>
                        <g clip-path="url(#_clip2)">
                            <g id="Artboard3" transform="matrix(0.979299,0,0,0.976143,40.958288,-0.398994)">
                                <rect x="644.782" y="-90.026" width="1316.366" height="602.621" style="fill:none;"/>
                                <g transform="matrix(4.166667,0,0,4.800446,25.287727,-1025.020845)">
                                    <path d="M207.437,274.664L186.741,225.326L179.53,225.326L158.967,274.664L169.048,274.664L174.523,261.913L192.082,261.913L197.356,274.664L207.437,274.664ZM188.41,253.167L177.861,253.167L183.135,238.211L188.41,253.167Z" style="fill:rgb(35,31,32);fill-rule:nonzero;"/>
                                </g>
                                <g transform="matrix(4.166667,0,0,4.800446,25.287727,-1025.020845)">
                                    <path d="M271.063,274.664L271.063,253.3C271.063,242.217 265.855,236.809 256.107,236.809C250.9,236.809 247.228,238.545 244.223,242.551C241.686,238.545 238.415,236.809 233.341,236.809C229.001,236.809 226.331,238.011 223.727,241.149L223.727,237.677L215.582,237.677L215.582,274.664L224.461,274.664L224.461,256.438C224.461,247.692 226.531,244.955 231.672,244.955C236.345,244.955 238.882,247.091 238.882,254.368L238.882,274.664L247.762,274.664L247.762,256.438C247.762,247.625 250.299,244.955 255.24,244.955C259.379,244.955 262.183,246.957 262.183,254.368L262.183,274.664L271.063,274.664Z" style="fill:rgb(35,31,32);fill-rule:nonzero;"/>
                                </g>
                                <g transform="matrix(4.166667,0,0,4.800446,25.287727,-1025.020845)">
                                    <path d="M315.193,274.664L315.193,253.767C315.193,241.616 309.585,236.743 300.705,236.743C296.9,236.743 293.962,237.811 291.291,240.214L291.291,225.326L282.412,225.326L282.412,274.664L291.291,274.664L291.291,255.904C291.291,247.759 294.029,244.955 299.103,244.955C304.31,244.955 306.313,248.026 306.313,255.77L306.313,274.664L315.193,274.664Z" style="fill:rgb(35,31,32);fill-rule:nonzero;"/>
                                </g>
                                <g transform="matrix(4.166667,0,0,4.800446,25.287727,-1025.020845)">
                                    <path d="M363.53,256.705C363.53,245.222 355.452,236.809 344.435,236.809C333.553,236.809 324.94,245.422 324.94,256.304C324.94,267.12 333.687,275.532 344.97,275.532C352.447,275.532 360.125,271.326 362.595,263.715L352.915,263.715C350.645,266.386 348.441,267.387 344.769,267.387C339.495,267.387 335.623,264.583 334.554,260.11L363.196,260.11C363.463,258.841 363.53,258.04 363.53,256.705ZM354.784,252.299L334.287,252.299C335.689,247.558 339.295,244.955 344.569,244.955C350.044,244.955 353.649,247.558 354.784,252.299Z" style="fill:rgb(35,31,32);fill-rule:nonzero;"/>
                                </g>
                                <g transform="matrix(4.166667,0,0,4.800446,25.287727,-1025.020845)">
                                    <path d="M390.969,245.355L390.969,236.809L390.302,236.809C386.496,236.809 384.627,237.878 382.29,241.283L382.29,237.677L374.145,237.677L374.145,274.664L383.024,274.664L383.024,254.101C383.024,248.36 385.628,245.489 390.969,245.355Z" style="fill:rgb(35,31,32);fill-rule:nonzero;"/>
                                </g>
                                <g transform="matrix(4.166667,0,0,4.800446,25.287727,-1025.020845)">
                                    <path d="M426.019,262.914C426.019,257.439 423.482,254.502 415.738,252.098C409.662,250.162 409.462,250.029 409.462,248.092C409.462,246.29 410.931,244.955 412.867,244.955C414.736,244.955 415.938,245.956 416.339,247.892L425.018,247.892C424.684,240.949 419.143,236.809 412.867,236.809C405.99,236.809 400.582,241.75 400.582,248.092C400.582,253.5 403.52,256.571 410.864,259.042C416.806,261.045 417.14,261.646 417.14,263.782C417.14,265.852 415.404,267.387 413.134,267.387C410.53,267.387 409.061,266.052 408.193,262.914L399.247,262.914C400.182,271.527 405.456,275.532 412.8,275.532C420.211,275.532 426.019,269.991 426.019,262.914Z" style="fill:rgb(35,31,32);fill-rule:nonzero;"/>
                                </g>
                                <g transform="matrix(4.166667,0,0,4.800446,25.287727,-1025.020845)">
                                    <path d="M452.591,245.756L452.591,237.677L447.25,237.677L447.25,225.326L438.37,225.326L438.37,237.677L434.03,237.677L434.03,245.756L438.37,245.756L438.37,274.664L447.25,274.664L447.25,245.756L452.591,245.756Z" style="fill:rgb(35,31,32);fill-rule:nonzero;"/>
                                </g>
                                <g transform="matrix(4.166667,0,0,4.800446,25.287727,-1025.020845)">
                                    <path d="M181.211,308.448L178.793,308.448C176.492,311.339 174.398,312.548 171.212,312.548C166.168,312.548 162.01,308.36 162.01,303.257C162.01,298.007 165.991,293.995 171.183,293.995C174.25,293.995 176.817,295.116 178.675,298.036L181.123,298.036C179.442,294.29 175.607,291.99 171.094,291.99C164.605,291.99 159.797,296.827 159.797,303.345C159.797,309.717 164.723,314.554 171.242,314.554C175.666,314.554 179.029,312.489 181.211,308.448Z" style="fill:rgb(35,31,32);fill-rule:nonzero;"/>
                                </g>
                                <g transform="matrix(4.166667,0,0,4.800446,25.287727,-1025.020845)">
                                    <path d="M207.699,303.287C207.699,297.063 202.508,291.99 196.195,291.99C189.942,291.99 184.663,297.092 184.663,303.139C184.663,309.481 189.795,314.554 196.195,314.554C202.508,314.554 207.699,309.451 207.699,303.287ZM205.487,303.316C205.487,308.36 201.269,312.548 196.195,312.548C191.063,312.548 186.875,308.36 186.875,303.198C186.875,298.213 191.152,293.995 196.195,293.995C201.269,293.995 205.487,298.213 205.487,303.316Z" style="fill:rgb(35,31,32);fill-rule:nonzero;"/>
                                </g>
                                <g transform="matrix(4.166667,0,0,4.800446,25.287727,-1025.020845)">
                                    <path d="M235.337,314.17L235.337,292.373L231.945,292.373L224.04,310.926L216.105,292.373L212.713,292.373L212.713,314.17L214.896,314.17L214.896,294.762L223.066,314.17L224.954,314.17L233.154,294.762L233.154,314.17L235.337,314.17Z" style="fill:rgb(35,31,32);fill-rule:nonzero;"/>
                                </g>
                                <g transform="matrix(4.166667,0,0,4.800446,25.287727,-1025.020845)">
                                    <path d="M265.098,314.17L265.098,292.373L261.706,292.373L253.801,310.926L245.866,292.373L242.474,292.373L242.474,314.17L244.657,314.17L244.657,294.762L252.827,314.17L254.715,314.17L262.915,294.762L262.915,314.17L265.098,314.17Z" style="fill:rgb(35,31,32);fill-rule:nonzero;"/>
                                </g>
                                <g transform="matrix(4.166667,0,0,4.800446,25.287727,-1025.020845)">
                                    <path d="M285.892,305.971L285.892,292.373L283.709,292.373L283.709,305.971C283.709,310.425 281.851,312.548 278.488,312.548C275.067,312.548 273.238,310.425 273.238,305.971L273.238,292.373L271.055,292.373L271.055,305.971C271.055,311.899 274.064,314.554 278.459,314.554C282.883,314.554 285.892,311.899 285.892,305.971Z" style="fill:rgb(35,31,32);fill-rule:nonzero;"/>
                                </g>
                                <g transform="matrix(4.166667,0,0,4.800446,25.287727,-1025.020845)">
                                    <path d="M309.194,314.17L309.194,292.373L307.011,292.373L307.011,310.454L294.8,292.373L291.85,292.373L291.85,314.17L294.033,314.17L294.033,294.998L307.011,314.17L309.194,314.17Z" style="fill:rgb(35,31,32);fill-rule:nonzero;"/>
                                </g>
                                <g transform="matrix(4.166667,0,0,4.800446,25.287727,-1025.020845)">
                                    <rect x="316.626" y="292.373" width="2.183" height="21.797" style="fill:rgb(35,31,32);fill-rule:nonzero;"/>
                                </g>
                                <g transform="matrix(4.166667,0,0,4.800446,25.287727,-1025.020845)">
                                    <path d="M345.237,308.448L342.818,308.448C340.518,311.339 338.423,312.548 335.238,312.548C330.194,312.548 326.035,308.36 326.035,303.257C326.035,298.007 330.017,293.995 335.208,293.995C338.276,293.995 340.842,295.116 342.7,298.036L345.149,298.036C343.467,294.29 339.633,291.99 335.12,291.99C328.631,291.99 323.823,296.827 323.823,303.345C323.823,309.717 328.749,314.554 335.267,314.554C339.692,314.554 343.054,312.489 345.237,308.448Z" style="fill:rgb(35,31,32);fill-rule:nonzero;"/>
                                </g>
                                <g transform="matrix(4.166667,0,0,4.800446,25.287727,-1025.020845)">
                                    <path d="M368.893,314.171L359.513,292.373L357.065,292.373L347.715,314.171L350.016,314.171L353.201,306.826L363.348,306.826L366.504,314.171L368.893,314.171ZM362.492,304.85L354.027,304.85L358.304,294.851L362.492,304.85Z" style="fill:rgb(35,31,32);fill-rule:nonzero;"/>
                                </g>
                                <g transform="matrix(4.166667,0,0,4.800446,25.287727,-1025.020845)">
                                    <path d="M381.576,294.349L381.576,292.373L369.424,292.373L369.424,294.349L374.409,294.349L374.409,314.17L376.592,314.17L376.592,294.349L381.576,294.349Z" style="fill:rgb(35,31,32);fill-rule:nonzero;"/>
                                </g>
                                <g transform="matrix(4.166667,0,0,4.800446,25.287727,-1025.020845)">
                                    <rect x="386.679" y="292.373" width="2.183" height="21.797" style="fill:rgb(35,31,32);fill-rule:nonzero;"/>
                                </g>
                                <g transform="matrix(4.166667,0,0,4.800446,25.287727,-1025.020845)">
                                    <path d="M416.913,303.287C416.913,297.063 411.722,291.99 405.409,291.99C399.156,291.99 393.876,297.092 393.876,303.139C393.876,309.481 399.009,314.554 405.409,314.554C411.722,314.554 416.913,309.451 416.913,303.287ZM414.701,303.316C414.701,308.36 410.483,312.548 405.409,312.548C400.277,312.548 396.089,308.36 396.089,303.198C396.089,298.213 400.366,293.995 405.409,293.995C410.483,293.995 414.701,298.213 414.701,303.316Z" style="fill:rgb(35,31,32);fill-rule:nonzero;"/>
                                </g>
                                <g transform="matrix(4.166667,0,0,4.800446,25.287727,-1025.020845)">
                                    <path d="M439.271,314.17L439.271,292.373L437.088,292.373L437.088,310.454L424.877,292.373L421.927,292.373L421.927,314.17L424.11,314.17L424.11,294.998L437.088,314.17L439.271,314.17Z" style="fill:rgb(35,31,32);fill-rule:nonzero;"/>
                                </g>
                                <g transform="matrix(4.166667,0,0,4.800446,25.287727,-1025.020845)">
                                    <path d="M457.912,308.094C457.912,306.177 457.115,304.466 455.729,303.434C454.844,302.785 453.93,302.372 451.688,301.694C449.712,301.104 449.033,300.838 448.473,300.337C447.853,299.806 447.441,298.803 447.441,297.8C447.441,295.618 449.033,293.995 451.216,293.995C453.428,293.995 455.109,295.529 455.109,297.889L457.381,297.889C457.381,294.349 454.844,291.99 451.275,291.99C447.765,291.99 445.228,294.467 445.228,297.859C445.228,299.364 445.789,300.809 446.762,301.723C447.618,302.549 448.296,302.874 450.833,303.64C454.579,304.791 455.699,305.823 455.699,308.212C455.699,310.719 453.871,312.548 451.393,312.548C448.945,312.548 447.175,310.985 446.851,308.065L444.52,308.065C444.727,311.988 447.411,314.554 451.334,314.554C455.109,314.554 457.912,311.811 457.912,308.094Z" style="fill:rgb(35,31,32);fill-rule:nonzero;"/>
                                </g>
                            </g>
                        </g>
                    </g>
                </g>
            </g>
        </g>
    </g>
</svg>
